<svg width="104" height="104" viewBox="0 0 104 104" version="1.1" xmlns="http://www.w3.org/2000/svg" xmlns:xlink="http://www.w3.org/1999/xlink">
<title>ts</title>
<desc>Created using Figma</desc>
<g id="Canvas" transform="translate(-7278 -4012)">
<clipPath id="clip-0" clip-rule="evenodd">
<path d="M 7278 4012L 7382 4012L 7382 4116L 7278 4116L 7278 4012Z" fill="#FFFFFF"/>
</clipPath>
<g id="ts" clip-path="url(#clip-0)">
<g id="Vector">
<use xlink:href="#path0_fill" transform="translate(7293 4038)" fill="#295FBE"/>
<use xlink:href="#path1_fill" transform="translate(7293 4038)" fill="#295FBE"/>
</g>
</g>
</g>
<defs>
<path id="path0_fill" d="M 39.1827 9.52344L 39.1827 4.76172L 39.1827 0L 0 0L 0 9.52344L 13.9035 9.52344L 13.9035 53L 25.2792 53L 25.2792 9.52344L 39.1827 9.52344Z"/>
<path id="path1_fill" d="M 70.908 1.61484C 70.2339 1.36641 68.2958 0.910938 66.5684 0.579688C 58.4791 -0.869531 50.5162 0.45547 45.7131 4.05781C 40.0675 8.23985 38.8035 17.432 43.0167 23.4359C 44.9126 26.1688 46.935 27.5766 53.339 30.682C 60.5857 34.1602 62.3552 35.7336 62.3552 38.7563C 62.3552 40.3297 62.1446 40.868 61.0913 41.8203C 59.406 43.3937 56.6674 44.0563 52.9598 43.8078C 49.2522 43.5594 45.7131 42.3586 42.9746 40.4125L 40.868 38.9219L 40.868 50.4328L 43.5223 51.3023C 50.9375 53.7039 60.4172 53.4555 66.2314 50.7641C 68.9699 49.4805 71.7507 46.7062 73.0146 43.9734C 74.3628 41.075 74.3207 34.6156 72.9304 31.5516C 71.3715 28.1148 67.9588 25.3406 61.2177 22.0695C 58.0157 20.4961 54.7294 18.5914 53.8446 17.7633C 52.4542 16.4797 52.2436 16.0242 52.2436 14.368C 52.2436 12.8359 52.4542 12.2563 53.4654 11.3039C 54.1395 10.6414 55.4456 9.85469 56.3304 9.60625C 60.038 8.52969 66.105 9.31641 69.8969 11.4281C 70.908 11.9664 71.7928 12.4219 71.8771 12.4219C 71.9613 12.4219 72.0456 10.1031 72.0456 7.24609L 72.0456 2.07031L 70.908 1.61484Z"/>
</defs>
</svg>
